<svg width="276" height="276" viewBox="0 0 276 276" fill="none" xmlns="http://www.w3.org/2000/svg">
<mask id="mask0_843_285" style="mask-type:alpha" maskUnits="userSpaceOnUse" x="0" y="0" width="276" height="276">
<rect width="276" height="276" rx="138" fill="#D9D9D9"/>
</mask>
<g mask="url(#mask0_843_285)">
<path d="M227.8 115.6C241.773 115.6 253.1 104.273 253.1 90.3C253.1 76.3272 241.773 65 227.8 65C213.827 65 202.5 76.3272 202.5 90.3C202.5 104.273 213.827 115.6 227.8 115.6Z" fill="#21BDDB"/>
<path fill-rule="evenodd" clip-rule="evenodd" d="M125.3 162.9C123.8 161.9 119.4 156.1 107.5 127.5C106.7 125.7 106.1 124.2 105.4 122.8L103 116.9L82 66.3H40L61 116.9L82 167.5L101.4 214.3C101.8 215.2 102.8 215.6 103.7 215.2C104.1 215 104.5 214.7 104.6 214.3L125.7 163.8C125.7 163.6 125.6 163.1 125.3 162.9Z" fill="#282828"/>
<path fill-rule="evenodd" clip-rule="evenodd" d="M203.9 162.9C202.4 161.9 198 156.1 186.1 127.5C185.3 125.7 184.7 124.2 184 122.8L181.6 116.9L160.6 66.3H118.7L139.7 116.9L160.7 167.5L180 214.3C180.4 215.2 181.4 215.6 182.3 215.2C182.7 215 183.1 214.7 183.2 214.3L204.3 163.8C204.3 163.6 204.2 163.1 203.9 162.9Z" fill="#282828"/>
</g>
</svg>
