<svg width="36" height="36" viewBox="0 0 36 36" fill="none" xmlns="http://www.w3.org/2000/svg">
<g clip-path="url(#clip0_855_275)">
<path d="M6.26398 29.771H11.248C11.512 29.771 11.746 29.624 11.893 29.419L25.614 6.874C25.79 6.581 25.585 6.229 25.233 6.229H20.513C20.278 6.229 20.073 6.346 19.956 6.552L6.02998 29.361C5.94198 29.537 6.05898 29.771 6.26398 29.771ZM23.445 29.419L29.924 19.011C30.129 18.688 29.895 18.278 29.514 18.278H24.823C24.647 18.278 24.471 18.366 24.383 18.513L17.728 29.156C17.552 29.42 17.757 29.772 18.08 29.772H22.859C23.093 29.771 23.327 29.654 23.445 29.419Z" fill="#3CA8FF"/>
</g>
<defs>
<clipPath id="clip0_855_275">
<rect width="24" height="24" fill="white" transform="translate(6 6)"/>
</clipPath>
</defs>
</svg>
